<svg xmlns="http://www.w3.org/2000/svg" style="isolation:isolate" viewBox="0 0 210 110" width="210" height="110">
  <defs>
    <clipPath id="a">
      <path d="M0 0h210v110H0z"/>
    </clipPath>
  </defs>
  <g clip-path="url(#a)" style="isolation:isolate">
    <path d="M190.274 81.3l17.966.582-8.02 23.612-4.122 2.867q-12.276 0-12.858-.582l2.733-22.984q2.599-3.495 4.301-3.495zM207.187 1q0 .565-33.722 50.208l1.097 42.05q0 .884-24.819 7.162l1-47.082-30.967-38.403q-.253-.507 28.347-7.336l12.935 24.498 15.404-27.38q.403.48 30.725-3.717z"/>
    <path d="M103.787 84.501l34.197-6.025q.61.532 3.399 22.016-.481.65-58.67 7.482-.609-.532-6.691-79.595.481-.651 56.369-9.396.609.532.21 20.199-.48.651-33.142 5.65l1.159 10.618 20.38-3.436q.61.532 1.923 17.621-.481.651-20.292 4.248l1.158 10.618z"/>
    <path d="M80.48 11.28l-4 86.08H49.2l2.04-31.84h-22l.04 30.84L2 98.42V15.28l27.28-2-1.04 30.88h23l1.96-32.88h27.28z"/>
  </g>
</svg>
