<svg xmlns="http://www.w3.org/2000/svg" style="isolation:isolate" viewBox="0 0 720 113" width="720" height="113">
  <defs>
    <clipPath id="a">
      <path d="M0 0h720v113H0z"/>
    </clipPath>
  </defs>
  <g clip-path="url(#a)" style="isolation:isolate">
    <mask id="b">
      <path fill="#fff" d="M692.495 9.175h24.276Q720 11.088 720 12.642l-.12 45.548q-1.913 2.988-3.228 2.988h-24.157q-3.229-1.793-3.229-3.347v-44.95q1.794-3.706 3.229-3.706z"/>
    </mask>
    <path fill="#4AA6DB" stroke="#fff" stroke-linecap="square" stroke-miterlimit="3" stroke-width="12" d="M692.495 9.175h24.276Q720 11.088 720 12.642h0l-.12 45.548h0q-1.913 2.988-3.228 2.988h0-24.157 0q-3.229-1.793-3.229-3.347h0v-44.95h0q1.794-3.706 3.229-3.706z" mask="url(#b)" vector-effect="non-scaling-stroke"/>
    
    <mask id="c">
      <path fill="#fff" d="M692.495 66.199h24.157q3.228 1.913 3.228 3.228v20.204q-1.913 3.227-3.228 3.227h-24.157q-3.229-1.912-3.229-3.227V69.427q1.913-3.228 3.229-3.228z"/>
    </mask>
    <path fill="#4AA6DB" stroke="#fff" stroke-linecap="square" stroke-miterlimit="3" stroke-width="12" d="M692.495 66.199h24.157q3.228 1.913 3.228 3.228h0v20.204h0q-1.913 3.227-3.228 3.227h0-24.157 0q-3.229-1.912-3.229-3.227h0V69.427h0q1.913-3.228 3.229-3.228z" mask="url(#c)" vector-effect="non-scaling-stroke"/>

    <path class="logo-yanime" stroke="#fff" stroke-width="5" stroke-linejoin="miter" fill="#424B54" d="M250.555 93.28h-22.68q-1.08 0-1.86-.78t-.78-1.5q0-.72.12-1.08l26.16-76.68q1.08-3.96 5.4-3.96h33.36q4.32 0 5.4 3.96l26.16 76.68q.12.36.12 1.08 0 .72-.78 1.5t-1.86.78h-22.68q-3.84 0-5.4-4.08l-3-8.4h-29.28l-3 8.4q-1.56 4.08-5.4 4.08zm14.52-35.88h17.04l-8.52-24.96-8.52 24.96zm115.4-48.12h22.32q1.32 0 2.28.96.96.96.96 2.28v77.52q0 1.32-.96 2.28-.96.96-2.28.96h-19.32q-2.88 0-4.8-2.52l-26.16-33.36v32.64q0 1.32-.96 2.28-.96.96-2.28.96h-22.32q-1.32 0-2.28-.96-.96-.96-.96-2.28V12.52q0-1.32.96-2.28.96-.96 2.28-.96h19.44q2.88 0 4.68 2.4l26.16 36.12V12.52q0-1.32.96-2.28.96-.96 2.28-.96zm114.8 24.6h-21.72v34.8h21.72q1.32 0 2.28.96.96.96.96 2.28v18.12q0 1.32-.96 2.28-.96.96-2.28.96h-76.08q-1.32 0-2.28-.96-.96-.96-.96-2.28V71.92q0-1.32.96-2.28.96-.96 2.28-.96h21.96v-34.8h-21.96q-1.32 0-2.28-.96-.96-.96-.96-2.28V12.52q0-1.32.96-2.28.96-.96 2.28-.96h76.08q1.32 0 2.28.96.96.96.96 2.28v18.12q0 1.32-.96 2.28-.96.96-2.28.96zm74.84-24.6h21.96q1.32 0 2.28.96.96.96.96 2.28v77.52q0 1.32-.96 2.28-.96.96-2.28.96h-21.72q-1.32 0-2.28-.96-.96-.96-.96-2.28v-37.2l-8.76 17.28q-.72 1.44-2.16 2.22-1.44.78-2.88.78h-8.16q-2.04 0-3.36-1.08-1.32-1.08-1.68-1.92l-8.76-17.28v37.2q0 1.32-.96 2.28-.96.96-2.28.96h-21.72q-1.32 0-2.28-.96-.96-.96-.96-2.28V12.52q0-1.32.96-2.28.96-.96 2.28-.96h21.96q3.36 0 5.16 3.24l15.72 28.8 15.72-28.8q1.8-3.24 5.16-3.24zm62.12 53.04v7.56h47.88q1.32 0 2.28.96.96.96.96 2.28v16.92q0 1.32-.96 2.28-.96.96-2.28.96h-75.84q-1.32 0-2.28-.96-.96-.96-.96-2.28V12.52q0-1.32.96-2.28.96-.96 2.28-.96h74.64q1.32 0 2.28.96.96.96.96 2.28v16.92q0 1.32-.96 2.28-.96.96-2.28.96h-46.68v7.56h40.08q1.32 0 2.28.96.96.96.96 2.28v15.6q0 1.32-.96 2.28-.96.96-2.28.96h-40.08zM187.628 81.959l17.904.58-7.992 23.523-4.108 2.856q-12.234 0-12.814-.58l2.723-22.897q2.59-3.482 4.287-3.482zM204.483 1.962q0 .563-33.606 50.019l1.093 41.891q0 .88-24.734 7.135l.996-46.904-30.86-38.259q-.253-.504 28.25-7.308l12.89 24.405 15.351-27.276q.402.478 30.62-3.703z"/>
    <path class="logo-e" stroke="#fff" stroke-width="5" stroke-linejoin="miter" fill="#424B54" d="M101.438 85.148l34.08-6.002q.607.53 3.386 21.932-.478.649-58.468 7.455-.607-.53-6.668-79.296.479-.648 56.175-9.36.607.53.21 20.123-.478.649-33.028 5.629l1.154 10.577 20.311-3.422q.607.53 1.916 17.555-.479.648-20.223 4.232l1.155 10.577z"/>
    <path class="logo-h" stroke="#fff" stroke-width="5" stroke-linejoin="miter" fill="#424B54" d="M78.211 12.203l-3.987 85.756H47.038l2.033-31.72H27.146l.04 30.723L0 99.015V16.188l27.186-1.992-1.036 30.763h22.921l1.953-32.756h27.187z"/>
  </g>
</svg>
